<?xml version="1.0" encoding="UTF-8" standalone="no"?>
<!DOCTYPE svg PUBLIC "-//W3C//DTD SVG 1.1//EN" "http://www.w3.org/Graphics/SVG/1.1/DTD/svg11.dtd">
<svg width="100%" height="100%" viewBox="0 0 350 350" version="1.1" xmlns="http://www.w3.org/2000/svg" xmlns:xlink="http://www.w3.org/1999/xlink" xml:space="preserve" xmlns:serif="http://www.serif.com/" style="fill-rule:evenodd;clip-rule:evenodd;stroke-linejoin:round;stroke-miterlimit:2;">
    <g id="Camada-1" serif:id="Camada 1">
        <g>
            <rect x="0" y="0" width="350" height="350" style="fill:rgb(0,146,63);"/>
            <path d="M0,195.753L0,154.247L175,42.5L350,154.247L350,195.753L175,307.5L0,195.753Z" style="fill:rgb(248,195,0);"/>
            <circle cx="174.815" cy="175" r="87.32" style="fill:rgb(40,22,111);"/>
            <path d="M183.665,193.835L184.72,196.5L187.575,196.68L185.375,198.51L186.08,201.285L183.665,199.75L181.245,201.285L181.955,198.51L179.75,196.68L182.605,196.5L183.665,193.835ZM248.945,203.155L249.845,205.425L252.28,205.58L250.4,207.14L251.005,209.5L248.945,208.195L246.88,209.5L247.485,207.14L245.61,205.58L248.045,205.425L248.945,203.155ZM239.6,210.39L240.66,213.05L243.515,213.235L241.31,215.06L242.02,217.835L239.6,216.305L237.18,217.835L237.89,215.06L235.685,213.235L238.545,213.05L239.6,210.39ZM236.135,201.025L237.39,204.18L240.775,204.4L238.165,206.565L239.005,209.85L236.135,208.035L233.27,209.85L234.11,206.565L231.5,204.4L234.885,204.18L236.135,201.025ZM235.465,217.335L236.52,219.995L239.38,220.175L237.175,222.005L237.885,224.78L235.465,223.245L233.045,224.78L233.755,222.005L231.55,220.175L234.405,219.995L235.465,217.335ZM227.29,221.635L228.19,223.9L230.625,224.06L228.75,225.615L229.355,227.98L227.29,226.675L225.23,227.98L225.835,225.615L223.955,224.06L226.39,223.9L227.29,221.635ZM218.885,229.45L219.945,232.11L222.8,232.295L220.595,234.12L221.305,236.895L218.885,235.36L216.47,236.895L217.175,234.12L214.975,232.295L217.83,232.11L218.885,229.45ZM218.785,239.23L219.685,241.5L222.12,241.655L220.245,243.215L220.85,245.58L218.785,244.275L216.725,245.58L217.33,243.215L215.45,241.655L217.885,241.5L218.785,239.23ZM218.65,221.55L219.55,223.815L221.985,223.97L220.105,225.53L220.71,227.895L218.65,226.59L216.585,227.895L217.19,225.53L215.31,223.97L217.75,223.815L218.65,221.55ZM208.35,223.575L209.255,225.845L211.69,226L209.81,227.56L210.415,229.925L208.35,228.62L206.29,229.925L206.895,227.56L205.015,226L207.45,225.845L208.35,223.575ZM201.745,139.77L203,142.925L206.385,143.14L203.775,145.305L204.615,148.59L201.745,146.775L198.88,148.59L199.72,145.305L197.11,143.14L200.495,142.925L201.745,139.77ZM200.365,231.57L201.42,234.235L204.28,234.415L202.075,236.245L202.785,239.015L200.365,237.485L197.945,239.015L198.655,236.245L196.45,234.415L199.305,234.235L200.365,231.57ZM195.505,166.31L196.41,168.575L198.845,168.735L196.965,170.29L197.57,172.655L195.505,171.35L193.445,172.655L194.05,170.29L192.17,168.735L194.605,168.575L195.505,166.31ZM193.19,221.375L194.09,223.645L196.525,223.8L194.65,225.355L195.255,227.72L193.19,226.415L191.13,227.72L191.735,225.355L189.855,223.8L192.29,223.645L193.19,221.375ZM175.66,186.35L176.715,189.01L179.575,189.195L177.37,191.02L178.08,193.795L175.66,192.265L173.24,193.795L173.95,191.02L171.745,189.195L174.6,189.01L175.66,186.35ZM175.15,211.12L176.4,214.275L179.79,214.49L177.175,216.655L178.015,219.945L175.15,218.13L172.285,219.945L173.125,216.655L170.51,214.49L173.9,214.275L175.15,211.12ZM175.435,242.705L175.915,243.915L177.215,244L176.215,244.83L176.535,246.095L175.435,245.395L174.335,246.095L174.655,244.83L173.655,244L174.955,243.915L175.435,242.705ZM169.92,200.96L170.595,202.66L172.415,202.775L171.01,203.94L171.465,205.71L169.92,204.73L168.38,205.71L168.83,203.94L167.425,202.775L169.25,202.66L169.92,200.96ZM163.54,195.445L164.44,197.715L166.875,197.87L164.995,199.425L165.6,201.79L163.54,200.485L161.475,201.79L162.08,199.425L160.2,197.87L162.64,197.715L163.54,195.445ZM140.86,174.595L141.915,177.26L144.77,177.44L142.57,179.27L143.275,182.045L140.86,180.51L138.44,182.045L139.15,179.27L136.945,177.44L139.8,177.26L140.86,174.595ZM138.305,218.7L139.555,221.855L142.945,222.075L140.33,224.24L141.17,227.525L138.305,225.71L135.435,227.525L136.28,224.24L133.665,222.075L137.05,221.855L138.305,218.7ZM128.715,201.29L129.775,203.95L132.63,204.135L130.425,205.96L131.135,208.735L128.715,207.2L126.3,208.735L127.005,205.96L124.805,204.135L127.66,203.95L128.715,201.29ZM125.555,211.1L126.455,213.37L128.89,213.525L127.01,215.08L127.615,217.445L125.555,216.14L123.49,217.445L124.095,215.08L122.215,213.525L124.65,213.37L125.555,211.1ZM119.04,188.785L119.715,190.48L121.535,190.6L120.13,191.765L120.585,193.53L119.04,192.555L117.5,193.53L117.95,191.765L116.545,190.6L118.37,190.48L119.04,188.785ZM111.025,192.305L112.275,195.46L115.665,195.675L113.05,197.84L113.89,201.13L111.025,199.315L108.16,201.13L109,197.84L106.385,195.675L109.775,195.46L111.025,192.305ZM103.83,155.975L105.085,159.13L108.47,159.345L105.86,161.51L106.7,164.8L103.83,162.985L100.965,164.8L101.805,161.51L99.195,159.345L102.58,159.13L103.83,155.975ZM101.86,200.605L102.92,203.27L105.775,203.45L103.57,205.28L104.28,208.05L101.86,206.52L99.44,208.05L100.15,205.28L97.945,203.45L100.805,203.27L101.86,200.605Z" style="fill:white;"/>
            <path d="M122.685,148.025C174.625,148.025 222.24,167.13 258.875,198.66C260.085,194.41 260.98,190.03 261.535,185.55C223.55,154.74 175.21,136.24 122.685,136.24C113.58,136.24 104.6,136.81 95.775,137.89C93.89,141.915 92.3,146.1 91.035,150.425C101.36,148.845 111.93,148.025 122.685,148.025Z" style="fill:white;"/>
            <path d="M100.22,143.49C100.29,144.345 100.54,144.99 100.96,145.43C101.38,145.87 101.93,146.06 102.615,146.005C103.3,145.945 103.82,145.665 104.16,145.155C104.505,144.65 104.635,143.97 104.565,143.115C104.49,142.26 104.24,141.615 103.82,141.175C103.395,140.735 102.84,140.545 102.15,140.605C101.465,140.66 100.955,140.945 100.615,141.45C100.28,141.95 100.145,142.63 100.22,143.49ZM98.59,143.63C98.48,142.375 98.74,141.35 99.36,140.555C99.98,139.76 100.87,139.315 102.03,139.215C103.19,139.115 104.145,139.405 104.895,140.08C105.645,140.76 106.075,141.725 106.18,142.975C106.29,144.23 106.03,145.255 105.405,146.05C104.785,146.845 103.89,147.295 102.735,147.395C101.57,147.495 100.62,147.205 99.87,146.525C99.125,145.845 98.695,144.88 98.59,143.63ZM111.27,142.18L113.155,142.115C113.565,142.1 113.86,142.01 114.05,141.835C114.235,141.665 114.32,141.4 114.31,141.045C114.3,140.705 114.195,140.45 114.005,140.285C113.81,140.115 113.53,140.035 113.16,140.05L111.2,140.115L111.27,142.18ZM109.815,146.615L109.555,138.825L113.335,138.7C114.18,138.67 114.815,138.83 115.235,139.18C115.66,139.53 115.88,140.08 115.905,140.825C115.92,141.3 115.835,141.7 115.645,142.025C115.46,142.35 115.18,142.575 114.81,142.705C115.15,142.815 115.4,142.99 115.55,143.23C115.7,143.475 115.795,143.855 115.835,144.375L115.9,145.295L115.9,145.325C115.925,145.79 116.035,146.07 116.23,146.16L116.235,146.4L114.48,146.46C114.42,146.35 114.375,146.22 114.34,146.06C114.305,145.9 114.275,145.71 114.265,145.485L114.215,144.665C114.18,144.185 114.08,143.86 113.91,143.7C113.74,143.535 113.44,143.46 113.015,143.475L111.315,143.53L111.42,146.56L109.815,146.615ZM121.315,144.865L122.6,144.89C123.345,144.905 123.89,144.72 124.23,144.335C124.57,143.955 124.75,143.32 124.765,142.45C124.78,141.575 124.64,140.935 124.335,140.52C124.03,140.105 123.55,139.89 122.89,139.88L121.41,139.85L121.315,144.865ZM119.715,146.24L119.865,138.45L122.915,138.505C124.115,138.53 125,138.87 125.575,139.525C126.15,140.18 126.425,141.165 126.4,142.48C126.385,143.19 126.265,143.815 126.04,144.355C125.81,144.895 125.485,145.325 125.07,145.65C124.755,145.89 124.4,146.06 124,146.16C123.605,146.26 123.05,146.305 122.335,146.29L119.715,146.24ZM129.605,146.415L130.025,138.635L135.68,138.94L135.605,140.29L131.53,140.07L131.445,141.73L135.165,141.93L135.095,143.26L131.37,143.06L131.265,145.06L135.525,145.29L135.45,146.73L129.605,146.415ZM138.78,146.96L139.605,139.21L141.965,139.46L142.875,145.525L145.025,139.79L147.39,140.04L146.565,147.79L145.07,147.63L145.735,141.38L143.495,147.465L141.865,147.29L140.94,140.87L140.27,147.12L138.78,146.96ZM159.43,149.62L161.06,142L166.595,143.185L166.31,144.51L162.325,143.655L161.975,145.28L165.625,146.06L165.345,147.365L161.695,146.58L161.275,148.54L165.45,149.435L165.15,150.845L159.43,149.62ZM180.055,150.1L181.555,150.505C181.96,150.61 182.275,150.605 182.505,150.485C182.735,150.36 182.905,150.11 183.005,149.725C183.105,149.37 183.085,149.075 182.955,148.84C182.825,148.61 182.58,148.445 182.22,148.35L180.645,147.925L180.055,150.1ZM179.68,151.46L178.96,154.135L177.41,153.72L179.435,146.195L182.785,147.095C183.575,147.31 184.115,147.68 184.415,148.195C184.71,148.715 184.75,149.375 184.535,150.17C184.33,150.945 183.97,151.49 183.455,151.8C182.945,152.115 182.315,152.17 181.58,151.975L179.68,151.46ZM189.05,152.685L190.85,153.24C191.24,153.36 191.555,153.37 191.785,153.265C192.02,153.165 192.185,152.94 192.29,152.6C192.39,152.28 192.375,152.005 192.25,151.785C192.125,151.56 191.88,151.395 191.53,151.285L189.655,150.71L189.05,152.685ZM186.23,156.405L188.515,148.955L192.13,150.065C192.94,150.315 193.49,150.675 193.775,151.14C194.06,151.61 194.09,152.2 193.87,152.915C193.73,153.37 193.52,153.72 193.235,153.965C192.95,154.21 192.615,154.335 192.225,154.335C192.51,154.55 192.69,154.795 192.755,155.075C192.815,155.355 192.78,155.745 192.65,156.25L192.41,157.14C192.41,157.145 192.405,157.155 192.4,157.17C192.275,157.615 192.285,157.915 192.44,158.065L192.37,158.295L190.69,157.775C190.67,157.655 190.665,157.515 190.685,157.35C190.705,157.19 190.74,157 190.8,156.785L191.02,155.995C191.145,155.53 191.155,155.19 191.05,154.985C190.94,154.775 190.685,154.605 190.275,154.48L188.65,153.98L187.76,156.875L186.23,156.405ZM198.095,156.38C197.8,157.185 197.755,157.875 197.95,158.455C198.14,159.03 198.56,159.435 199.205,159.67C199.855,159.905 200.44,159.87 200.965,159.555C201.49,159.24 201.9,158.68 202.195,157.875C202.485,157.07 202.535,156.38 202.34,155.805C202.14,155.225 201.715,154.815 201.065,154.58C200.425,154.345 199.84,154.385 199.32,154.695C198.8,155.01 198.39,155.57 198.095,156.38ZM196.56,155.815C196.995,154.635 197.66,153.815 198.555,153.355C199.455,152.9 200.45,152.87 201.545,153.27C202.635,153.67 203.38,154.335 203.775,155.265C204.17,156.2 204.15,157.255 203.715,158.435C203.285,159.615 202.62,160.435 201.715,160.89C200.815,161.35 199.815,161.38 198.725,160.98C197.63,160.58 196.89,159.915 196.5,158.985C196.11,158.055 196.13,156.995 196.56,155.815ZM210.98,164.97C210.56,165.215 210.145,165.35 209.73,165.375C209.32,165.4 208.885,165.315 208.43,165.12C207.43,164.69 206.765,164 206.44,163.04C206.115,162.075 206.195,161.03 206.675,159.9C207.165,158.755 207.865,157.975 208.775,157.555C209.685,157.13 210.66,157.14 211.69,157.58C212.59,157.965 213.23,158.49 213.615,159.165C214,159.835 214.085,160.57 213.87,161.37L212.365,160.73C212.435,160.32 212.37,159.955 212.17,159.64C211.975,159.325 211.65,159.075 211.2,158.88C210.6,158.625 210.035,158.645 209.505,158.94C208.975,159.23 208.545,159.765 208.215,160.54C207.88,161.32 207.8,162.005 207.97,162.6C208.14,163.195 208.535,163.625 209.155,163.89C209.625,164.085 210.075,164.115 210.505,163.975C210.94,163.83 211.295,163.535 211.575,163.09L209.95,162.395L210.47,161.17L213.44,162.435L211.785,166.315L210.8,165.895L210.98,164.97ZM218.39,164.765L220.08,165.595C220.45,165.775 220.755,165.83 221,165.765C221.245,165.7 221.445,165.51 221.605,165.185C221.75,164.885 221.78,164.615 221.69,164.375C221.6,164.135 221.385,163.935 221.055,163.77L219.295,162.91L218.39,164.765ZM215.02,167.995L218.445,161L221.84,162.66C222.605,163.035 223.09,163.475 223.295,163.98C223.505,164.485 223.445,165.075 223.115,165.745C222.905,166.175 222.64,166.485 222.325,166.685C222.005,166.88 221.65,166.95 221.265,166.89C221.515,167.15 221.65,167.415 221.675,167.705C221.69,167.99 221.595,168.37 221.385,168.845L221.01,169.69C221.01,169.695 221.005,169.705 220.995,169.715C220.8,170.135 220.765,170.435 220.895,170.61L220.79,170.82L219.21,170.05C219.21,169.925 219.23,169.785 219.275,169.63C219.32,169.47 219.385,169.29 219.48,169.09L219.82,168.345C220.015,167.905 220.075,167.57 220.005,167.345C219.93,167.12 219.7,166.915 219.32,166.73L217.795,165.98L216.46,168.7L215.02,167.995ZM223.73,172.47L227.52,165.66L232.465,168.41L231.805,169.595L228.24,167.61L227.435,169.065L230.695,170.875L230.045,172.04L226.785,170.23L225.81,171.98L229.545,174.055L228.845,175.315L223.73,172.47ZM232.525,174.885L233.88,175.7C233.71,176.095 233.695,176.46 233.835,176.785C233.975,177.11 234.28,177.415 234.75,177.695C235.15,177.94 235.49,178.05 235.78,178.025C236.07,178.01 236.295,177.86 236.465,177.58C236.705,177.175 236.325,176.49 235.325,175.525C235.31,175.51 235.3,175.5 235.29,175.49C235.265,175.465 235.225,175.425 235.17,175.375C234.625,174.86 234.275,174.44 234.115,174.11C233.965,173.82 233.91,173.505 233.94,173.175C233.97,172.845 234.09,172.51 234.3,172.16C234.69,171.51 235.21,171.15 235.86,171.065C236.51,170.99 237.255,171.2 238.085,171.7C238.865,172.17 239.365,172.725 239.58,173.355C239.8,173.99 239.715,174.65 239.34,175.335L238.02,174.54C238.19,174.2 238.215,173.88 238.09,173.58C237.97,173.275 237.7,172.995 237.29,172.75C236.93,172.53 236.61,172.435 236.33,172.455C236.05,172.48 235.835,172.62 235.675,172.88C235.46,173.235 235.685,173.725 236.335,174.36C236.51,174.53 236.65,174.665 236.745,174.76C237.16,175.18 237.445,175.485 237.61,175.675C237.77,175.87 237.9,176.05 238,176.23C238.18,176.545 238.265,176.865 238.25,177.195C238.235,177.53 238.125,177.87 237.915,178.215C237.495,178.91 236.94,179.305 236.24,179.405C235.54,179.505 234.765,179.3 233.915,178.785C233.075,178.28 232.53,177.69 232.29,177.01C232.05,176.335 232.125,175.625 232.525,174.885ZM240.735,180.02L242.045,180.91C241.855,181.295 241.825,181.655 241.95,181.99C242.07,182.32 242.36,182.64 242.815,182.945C243.2,183.205 243.535,183.335 243.825,183.33C244.115,183.325 244.35,183.19 244.53,182.92C244.795,182.525 244.45,181.825 243.5,180.805C243.49,180.795 243.475,180.78 243.47,180.77C243.44,180.745 243.405,180.705 243.355,180.645C242.84,180.105 242.51,179.67 242.365,179.33C242.235,179.035 242.195,178.715 242.24,178.39C242.29,178.06 242.425,177.73 242.655,177.395C243.08,176.765 243.62,176.43 244.27,176.385C244.925,176.34 245.655,176.59 246.46,177.135C247.215,177.645 247.68,178.22 247.865,178.865C248.05,179.51 247.935,180.16 247.52,180.825L246.24,179.965C246.43,179.635 246.47,179.315 246.365,179.005C246.26,178.695 246.005,178.405 245.61,178.135C245.26,177.9 244.945,177.785 244.665,177.795C244.385,177.805 244.16,177.935 243.99,178.185C243.76,178.525 243.955,179.03 244.57,179.695C244.74,179.875 244.87,180.02 244.96,180.12C245.35,180.555 245.62,180.88 245.775,181.075C245.925,181.275 246.045,181.47 246.135,181.65C246.3,181.975 246.365,182.3 246.335,182.63C246.305,182.96 246.175,183.295 245.945,183.63C245.495,184.3 244.915,184.67 244.21,184.73C243.505,184.795 242.745,184.55 241.92,183.99C241.11,183.44 240.6,182.82 240.395,182.135C240.185,181.445 240.3,180.74 240.735,180.02ZM250.64,185.275C250.12,185.96 249.87,186.61 249.89,187.215C249.905,187.825 250.19,188.335 250.735,188.75C251.285,189.165 251.86,189.3 252.455,189.155C253.045,189.01 253.6,188.59 254.12,187.905C254.635,187.225 254.885,186.575 254.865,185.965C254.84,185.355 254.555,184.84 254.005,184.425C253.46,184.01 252.89,183.88 252.3,184.03C251.71,184.175 251.155,184.59 250.64,185.275ZM249.335,184.29C250.095,183.29 250.97,182.7 251.96,182.52C252.955,182.345 253.915,182.61 254.845,183.31C255.775,184.015 256.29,184.865 256.395,185.875C256.495,186.88 256.17,187.885 255.415,188.885C254.655,189.89 253.775,190.48 252.78,190.65C251.785,190.825 250.82,190.565 249.895,189.865C248.965,189.16 248.45,188.305 248.35,187.3C248.25,186.3 248.575,185.295 249.335,184.29Z" style="fill:rgb(0,146,63);"/>
        </g>
    </g>
</svg>
